<svg width="65" height="64" viewBox="0 0 65 64" fill="none" xmlns="http://www.w3.org/2000/svg">
<path d="M29.1667 11.9999H39.1667L50.1333 0.99991C50.4432 0.687482 50.8119 0.439501 51.2181 0.270272C51.6243 0.101043 52.06 0.013916 52.5 0.013916C52.94 0.013916 53.3757 0.101043 53.7819 0.270272C54.1881 0.439501 54.5568 0.687482 54.8667 0.99991L63.4667 9.63324C64.0875 10.2578 64.436 11.1026 64.436 11.9832C64.436 12.8639 64.0875 13.7087 63.4667 14.3332L55.8333 21.9999H29.1667V28.6666C29.1667 29.5506 28.8155 30.3985 28.1904 31.0236C27.5652 31.6487 26.7174 31.9999 25.8333 31.9999C24.9493 31.9999 24.1014 31.6487 23.4763 31.0236C22.8512 30.3985 22.5 29.5506 22.5 28.6666V18.6666C22.5 16.8985 23.2024 15.2028 24.4526 13.9525C25.7029 12.7023 27.3986 11.9999 29.1667 11.9999ZM9.16667 28.6666V41.9999L1.53334 49.6332C0.912498 50.2578 0.564026 51.1026 0.564026 51.9832C0.564026 52.8639 0.912498 53.7087 1.53334 54.3332L10.1333 62.9666C10.4432 63.279 10.8119 63.527 11.2181 63.6962C11.6243 63.8654 12.06 63.9526 12.5 63.9526C12.94 63.9526 13.3757 63.8654 13.7819 63.6962C14.1881 63.527 14.5568 63.279 14.8667 62.9666L29.1667 48.6666H42.5C43.3841 48.6666 44.2319 48.3154 44.857 47.6903C45.4822 47.0651 45.8333 46.2173 45.8333 45.3332V41.9999H49.1667C50.0507 41.9999 50.8986 41.6487 51.5237 41.0236C52.1488 40.3985 52.5 39.5506 52.5 38.6666V35.3332H55.8333C56.7174 35.3332 57.5652 34.9821 58.1904 34.3569C58.8155 33.7318 59.1667 32.884 59.1667 31.9999V28.6666H35.8333V31.9999C35.8333 33.768 35.131 35.4637 33.8807 36.714C32.6305 37.9642 30.9348 38.6666 29.1667 38.6666H22.5C20.7319 38.6666 19.0362 37.9642 17.786 36.714C16.5357 35.4637 15.8333 33.768 15.8333 31.9999V21.9999L9.16667 28.6666Z" fill="white"/>
</svg>
