<svg width="81" height="80" viewBox="0 0 81 80" fill="none" xmlns="http://www.w3.org/2000/svg">
<path d="M37.1667 20H47.1667L58.1333 9.00003C58.4432 8.6876 58.8119 8.43962 59.2181 8.27039C59.6243 8.10117 60.06 8.01404 60.5 8.01404C60.94 8.01404 61.3757 8.10117 61.7819 8.27039C62.1881 8.43962 62.5568 8.6876 62.8667 9.00003L71.4667 17.6334C72.0875 18.2579 72.436 19.1027 72.436 19.9834C72.436 20.864 72.0875 21.7088 71.4667 22.3334L63.8333 30H37.1667V36.6667C37.1667 37.5508 36.8155 38.3986 36.1904 39.0237C35.5652 39.6488 34.7174 40 33.8333 40C32.9493 40 32.1014 39.6488 31.4763 39.0237C30.8512 38.3986 30.5 37.5508 30.5 36.6667V26.6667C30.5 24.8986 31.2024 23.2029 32.4526 21.9527C33.7029 20.7024 35.3986 20 37.1667 20ZM17.1667 36.6667V50L9.53334 57.6334C8.9125 58.2579 8.56403 59.1027 8.56403 59.9834C8.56403 60.864 8.9125 61.7088 9.53334 62.3334L18.1333 70.9667C18.4432 71.2791 18.8119 71.5271 19.2181 71.6963C19.6243 71.8656 20.06 71.9527 20.5 71.9527C20.94 71.9527 21.3757 71.8656 21.7819 71.6963C22.1881 71.5271 22.5568 71.2791 22.8667 70.9667L37.1667 56.6667H50.5C51.3841 56.6667 52.2319 56.3155 52.857 55.6904C53.4822 55.0653 53.8333 54.2174 53.8333 53.3334V50H57.1667C58.0507 50 58.8986 49.6488 59.5237 49.0237C60.1488 48.3986 60.5 47.5508 60.5 46.6667V43.3334H63.8333C64.7174 43.3334 65.5652 42.9822 66.1904 42.3571C66.8155 41.7319 67.1667 40.8841 67.1667 40V36.6667H43.8333V40C43.8333 41.7681 43.131 43.4638 41.8807 44.7141C40.6305 45.9643 38.9348 46.6667 37.1667 46.6667H30.5C28.7319 46.6667 27.0362 45.9643 25.786 44.7141C24.5357 43.4638 23.8333 41.7681 23.8333 40V30L17.1667 36.6667Z" fill="#091F5B"/>
</svg>
